# AST/ASF file generated using VICON BodyLanguage
# -----------------------------------------------
:version 1.10
:name VICON
:units
  mass 1.0
  length 0.45
  angle deg
:documentation
   .ast/.asf automatically generated from VICON data using
   VICON BodyBuilder and BodyLanguage model FoxedUp or BRILLIANT.MOD
:root
   order TX TY TZ RX RY RZ
   axis XYZ
   position 0 0 0  
   orientation 0 0 0 
:bonedata
  begin
     id 1 
     name lhipjoint
     direction 0.630082 -0.636569 0.44472 
     length 2.82754 
     axis 0 0 0  XYZ
  end
  begin
     id 2 
     name lfemur
     direction 0.34202 -0.939693 0  
     length 7.26371  
     axis 0 0 20  XYZ
    dof rx ry rz
    limits (-160.0 20.0)
           (-70.0 70.0)
           (-60.0 70.0)
  end
  begin
     id 3 
     name ltibia
     direction 0.34202 -0.939693 0   
     length 7.88616   
     axis 0 0 20   XYZ
    dof rx
    limits (-10.0 170.0)
  end
  begin
     id 4 
     name lfoot
     direction 0.0603448 -0.165796 0.984312   
     length 1.77861   
     axis -90 7.62852e-016 20   XYZ
    dof rx rz
    limits (-45.0 90.0)
           (-70.0 20.0)
  end
  begin
     id 5 
     name ltoes
     direction 1.53577e-011 -4.21876e-011 1   
     length 0.902235   
     axis -90 7.62852e-016 20   XYZ
    dof rx
    limits (-90.0 20.0)
  end
  begin
     id 6 
     name rhipjoint
     direction -0.656778 -0.61817 0.431866   
     length 2.9117  
     axis 0 0 0  XYZ 
  end
  begin
     id 7 
     name rfemur
     direction -0.34202 -0.939693 0   
     length 6.81603   
     axis 0 0 -20   XYZ
    dof rx ry rz
    limits (-160.0 20.0)
           (-70.0 70.0)
           (-70.0 60.0)
  end
  begin
     id 8 
     name rtibia
     direction -0.34202 -0.939693 0   
     length 8.05997   
     axis 0 0 -20   XYZ
    dof rx
    limits (-10.0 170.0)
 end
 begin
     id 9 
     name rfoot
     direction -0.0862404 -0.236944 0.967688   
     length 1.84899  
     axis -90 -7.62852e-016 -20   XYZ
    dof rx rz
    limits (-45.0 90.0)
           (-20.0 70.0)
  end
  begin
     id 10 
     name rtoes
     direction -1.53561e-011 -4.21798e-011 1   
     length 0.931579   
     axis -90 -7.62852e-016 -20   XYZ
    dof rx
    limits (-90.0 20.0)
  end
  begin
     id 11 
     name lowerback
     direction -0.0110203 0.991769 -0.127564   
     length 2.05686   
     axis 0 0 0   XYZ
    dof rx ry rz
    limits (-20.0 45.0)
           (-30.0 30.0)
           (-30.0 30.0)
  end
  begin
     id 12 
     name upperback
     direction 0.0109719 0.99993 -0.00432479   
     length 2.06234   
     axis 0 0 0   XYZ
    dof rx ry rz
    limits (-20.0 45.0)
           (-30.0 30.0)
           (-30.0 30.0)
  end
  begin
     id 13 
     name thorax
     direction 0.0173308 0.998351 0.0547306   
     length 2.09856   
     axis 0 0 0   XYZ
    dof rx ry rz
    limits (-20.0 45.0)
           (-30.0 30.0)
           (-30.0 30.0)
  end
  begin
     id 14 
     name lowerneck
     direction -0.0311736 0.989033 0.144366   
     length 1.98151   
     axis 0 0 0   XYZ
    dof rx ry rz
    limits (-20.0 45.0)
           (-30.0 30.0)
           (-30.0 30.0)
  end
  begin
     id 15 
     name upperneck
     direction 0.0421057 0.975772 -0.214698   
     length 2.01457   
     axis 0 0 0   XYZ
    dof rx ry rz
    limits (-20.0 45.0)
           (-30.0 30.0)
           (-30.0 30.0)
  end
  begin
     id 16
     name head
     direction 0.0136911 0.995958 -0.0887718  
     length 2.03562  
     axis 0 0 0   XYZ
    dof rx ry rz
    limits (-20.0 45.0)
           (-30.0 30.0)
           (-30.0 30.0)
  end
  begin
     id 17 
     name lclavicle
     direction 0.915335 0.396201 0.0720134  
     length 4.16217  
     axis 0 0 0   XYZ
    dof ry rz
    limits (-20.0 10.0)
           (0.0 20.0)
  end
  begin
     id 18 
     name lhumerus
     direction 1 -4.48965e-011 6.383e-018   
     length 4.93042   
     axis -180 -30 -90   XYZ
    dof rx ry rz
    limits (-60.0 90.0)
           (-90.0 90.0)
           (-90.0 90.0)
  end
  begin
     id 19
     name lradius
     direction 1 -4.48972e-011 8.8689e-027   
     length 3.68177   
     axis -180 -30 -90   XYZ
    dof rx
    limits (-10.0 170.0)
  end
  begin
     id 20
     name lwrist
     direction 1 -4.48953e-011 1.17971e-026   
     length 1.84089   
     axis -7.69454e-015 90 90   XYZ
    dof ry
    limits (-180.0 0.0)
 end
  begin
     id 21 
     name lhand
     direction 1 -4.49027e-011 2.35802e-026   
     length 0.721479   
     axis -1.50533e-014 90 90   XYZ
    dof rx rz
    limits (-90.0 90.0)
           (-45.0 45.0)
  end
  begin
     id 22 
     name lfingers
     direction 1 -4.48915e-011 4.72027e-026   
     length 0.581675   
     axis -3.01059e-014 90 90   XYZ
    dof rx
    limits (0.0 90.0)
  end
  begin
     id 23
     name lthumb
     direction 0.707107 -6.34948e-011 0.707107   
     length 0.835172   
     axis -90 45 -5.12164e-014   XYZ
    dof rx rz
    limits (-45.0 45.0)
           (-45.0 45.0)
  end
  begin
     id 24 
     name rclavicle
     direction -0.882781 0.469197 0.0234974   
     length 3.95647  
     axis 0 0 0   XYZ 
    dof ry rz
    limits (-10.0 20.0)
           (-20.0 0.0)
  end
  begin
     id 25 
     name rhumerus
     direction -1 -4.48965e-011 -1.54906e-018  
     length 5.07905   
     axis -180 30 90   XYZ
    dof rx ry rz
    limits (-90.0 60.0)
           (-90.0 90.0)
           (-90.0 90.0)
  end
  begin
     id 26 
     name rradius
     direction -1 -4.48972e-011 5.47489e-027   
     length 3.54394   
     axis -180 30 90   XYZ
    dof rx
    limits (-10.0 170.0)
  end
  begin
     id 27 
     name rwrist
     direction -1 -4.48955e-011 1.17969e-026   
     length 1.77197   
     axis -7.69454e-015 -90 -90   XYZ
    dof ry
    limits (-180.0 0.0)
  end
  begin
     id 28
     name rhand
     direction -1 -4.48982e-011 2.35888e-026   
     length 0.681156   
     axis -1.50533e-014 -90 -90   XYZ
    dof rx rz
    limits (-90.0 90.0)
           (-45.0 45.0)
  end
  begin
     id 29
     name rfingers
     direction -1 -4.48955e-011 4.71877e-026   
     length 0.549165   
     axis -3.01059e-014 -90 -90   XYZ
    dof rx
    limits (0.0 90.0)
  end
  begin
     id 30
     name rthumb
     direction -0.707107 -6.3491e-011 0.707107   
     length 0.788495   
     axis -90 -45 5.12164e-014   XYZ
    dof rx rz
    limits (-45.0 45.0)
           (-45.0 45.0)
  end
:hierarchy
  begin
    root lhipjoint rhipjoint lowerback
    lhipjoint lfemur
    lfemur ltibia
    ltibia lfoot
    lfoot ltoes
    rhipjoint rfemur
    rfemur rtibia
    rtibia rfoot
    rfoot rtoes
    lowerback upperback
    upperback thorax
    thorax lowerneck lclavicle rclavicle
    lowerneck upperneck
    upperneck head
    lclavicle lhumerus
    lhumerus lradius
    lradius lwrist
    lwrist lhand lthumb
    lhand lfingers
    rclavicle rhumerus
    rhumerus rradius
    rradius rwrist
    rwrist rhand rthumb
    rhand rfingers
  end

#!OML:ASF H:\Bending\Project 1\Capture day 1\Session 1\Subject.ASF
:FULLY-SPECIFIED
:DEGREES
549
root -10.4323 17.9139 -16.4186 -78.0447 87.82 -82.7811
lowerback 3.52797 -0.14233 0.927507
upperback -2.90206 0.00243155 2.23165
thorax -4.98171 0.027226 1.78921
lowerneck -22.6408 -5.24588 -7.76485
upperneck 29.843 -6.23055 5.80086
head 14.5382 -2.58796 2.54016
rclavicle -4.73045e-015 1.43125e-014
rhumerus -38.2047 -4.5018 -77.8158
rradius 27.5339
rwrist 14.4438
rhand -15.5928 -19.6222
rfingers 7.12502
rthumb 10.593 -49.3352
lclavicle -4.73045e-015 1.43125e-014
lhumerus -35.3213 11.1305 86.2013
lradius 24.774
lwrist 22.4089
lhand -30.5859 9.06516
lfingers 7.12502
lthumb -3.8833 39.0095
rfemur 3.15102 2.10945 13.7271
rtibia -1.43125e-014
rfoot -7.41649 -17.5887
rtoes -4.21416
lfemur -9.38345 -27.8561 -9.01077
ltibia 22.2944
lfoot -29.6743 20.1029
ltoes 0.969649
550
root -10.4368 17.9149 -16.419 -77.4918 87.8359 -82.2256
lowerback 3.58766 -0.151641 0.888871
upperback -2.91446 -0.0107567 2.23139
thorax -5.02838 0.0220695 1.81217
lowerneck -22.631 -5.24019 -7.73505
upperneck 29.8661 -6.2155 5.74507
head 14.5413 -2.58596 2.51562
rclavicle 3.16813e-016 -1.19271e-015
rhumerus -38.1624 -4.58975 -77.8009
rradius 27.6168
rwrist 14.5024
rhand -15.5437 -19.5427
rfingers 7.12502
rthumb 10.6404 -49.2533
lclavicle 3.16813e-016 -1.19271e-015
lhumerus -35.3072 11.101 86.1982
lradius 24.8243
lwrist 22.3528
lhand -30.5483 9.07984
lfingers 7.12502
lthumb -3.84697 39.0249
rfemur 3.13674 2.12671 13.7045
rtibia 9.54166e-015
rfoot -7.41793 -17.5851
rtoes -4.04383
lfemur -9.38362 -27.7908 -9.02719
ltibia 22.2672
lfoot -29.5718 20.1376
ltoes 0.614523
551
root -10.4406 17.9156 -16.4209 -77.1003 87.8388 -81.8184
lowerback 3.65239 -0.162714 0.899796
upperback -2.92174 -0.0238505 2.22294
thorax -5.07259 0.0150107 1.7988
lowerneck -22.6299 -5.24196 -7.70725
upperneck 29.9039 -6.20943 5.68676
head 14.5537 -2.58804 2.48882
rclavicle 2.09035e-015 -9.93923e-015
rhumerus -38.118 -4.59539 -77.8354
rradius 27.7087
rwrist 14.4693
rhand -15.5176 -19.4016
rfingers 7.12502
rthumb 10.6655 -49.1109
lclavicle 2.09035e-015 -9.93923e-015
lhumerus -35.2937 11.0487 86.1925
lradius 24.8564
lwrist 22.2491
lhand -30.5212 9.14416
lfingers 7.12502
lthumb -3.82081 39.0896
rfemur 3.13318 2.14229 13.6898
rtibia -6.36111e-015
rfoot -7.42099 -17.5814
rtoes -3.83381
lfemur -9.37248 -27.7649 -9.04329
ltibia 22.2561
lfoot -29.5378 20.1443
ltoes 0.582752
552
root -10.4441 17.9162 -16.4239 -76.5704 87.8255 -81.2683
lowerback 3.71372 -0.175291 0.950923
upperback -2.92469 -0.0369277 2.2097
thorax -5.1104 0.00639724 1.75784
lowerneck -22.6496 -5.25063 -7.68688
upperneck 29.9616 -6.21105 5.63248
head 14.5808 -2.59318 2.46361
rclavicle 1.8108e-015 -1.70955e-014
rhumerus -38.0696 -4.50274 -77.9195
rradius 27.8089
rwrist 14.3576
rhand -15.4942 -19.191
rfingers 7.12502
rthumb 10.6881 -48.8991
lclavicle 1.8108e-015 -1.70955e-014
lhumerus -35.2776 11.0015 86.1754
lradius 24.8726
lwrist 22.1373
lhand -30.5208 9.23259
lfingers 7.12502
lthumb -3.82035 39.1781
rfemur 3.12737 2.16712 13.6873
rtibia -3.18055e-015
rfoot -7.41364 -17.5829
rtoes -3.71349
lfemur -9.35588 -27.7696 -9.05173
ltibia 22.2616
lfoot -29.5817 20.1162
ltoes 0.907427
553
root -10.4474 17.9166 -16.427 -75.6856 87.7991 -80.369
lowerback 3.76259 -0.189902 1.02128
upperback -2.92471 -0.0518557 2.19574
thorax -5.13807 -0.00386146 1.70539
lowerneck -22.6962 -5.263 -7.6752
upperneck 30.0348 -6.2163 5.58642
head 14.6217 -2.59924 2.44252
rclavicle 1.17718e-015 1.19271e-014
rhumerus -38.0153 -4.33571 -78.0337
rradius 27.9175
rwrist 14.2176
rhand -15.4662 -18.9307
rfingers 7.12502
rthumb 10.7151 -48.6374
lclavicle 1.17718e-015 1.19271e-014
lhumerus -35.2549 10.9813 86.1432
lradius 24.8752
lwrist 22.0386
lhand -30.5499 9.30804
lfingers 7.12502
lthumb -3.84849 39.253
rfemur 3.10723 2.20768 13.6957
rtibia 1.74931e-014
rfoot -7.38767 -17.5922
rtoes -3.76876
lfemur -9.34092 -27.7995 -9.0496
ltibia 22.2777
lfoot -29.6932 20.0685
ltoes 1.49375
554
root -10.4503 17.9164 -16.4295 -75.1737 87.7743 -79.8417
lowerback 3.80195 -0.218277 1.08476
upperback -2.91872 -0.0857836 2.1858
thorax -5.15366 -0.0232667 1.66242
lowerneck -22.7674 -5.27456 -7.67099
upperneck 30.1127 -6.21936 5.54944
head 14.6707 -2.60371 2.42662
rclavicle -6.24308e-016 -1.39149e-014
rhumerus -37.9557 -4.12917 -78.154
rradius 28.0387
rwrist 14.0966
rhand -15.4444 -18.6663
rfingers 7.12502
rthumb 10.7361 -48.3719
lclavicle -6.24308e-016 -1.39149e-014
lhumerus -35.2243 10.9943 86.1015
lradius 24.868
lwrist 21.9635
lhand -30.5949 9.34253
lfingers 7.12502
lthumb -3.89193 39.2867
rfemur 3.09583 2.2349 13.7095
rtibia 9.54166e-015
rfoot -7.3632 -17.6037
rtoes -3.94194
lfemur -9.3257 -27.8522 -9.04214
ltibia 22.2953
lfoot -29.8197 20.0136
ltoes 2.10748
555
root -10.4536 17.9158 -16.4318 -74.7116 87.7566 -79.3652
lowerback 3.84228 -0.256796 1.13447
upperback -2.90985 -0.133911 2.18093
thorax -5.16655 -0.049134 1.63365
lowerneck -22.8538 -5.28114 -7.67262
upperneck 30.1836 -6.21445 5.51958
head 14.7198 -2.60452 2.41583
rclavicle 3.58744e-015 -1.86858e-014
rhumerus -37.8938 -3.90362 -78.2664
rradius 28.1806
rwrist 14.0067
rhand -15.4473 -18.4535
rfingers 7.12502
rthumb 10.7333 -48.1593
lclavicle 3.58744e-015 -1.86858e-014
lhumerus -35.1885 11.028 86.0647
lradius 24.8581
lwrist 21.9257
lhand -30.6314 9.33191
lfingers 7.12502
lthumb -3.92718 39.2755
rfemur 3.08309 2.25865 13.7172
rtibia -1.59028e-015
rfoot -7.32488 -17.6158
rtoes -4.22887
lfemur -9.31017 -27.9413 -9.04135
ltibia 22.3057
lfoot -29.9469 20.0023
ltoes 2.59557
